<?xml version="1.0" encoding="UTF-8"?>
<!DOCTYPE svg PUBLIC "-//W3C//DTD SVG 1.1//EN" "http://www.w3.org/Graphics/SVG/1.1/DTD/svg11.dtd">
<svg xmlns="http://www.w3.org/2000/svg" version="1.1" width="1200px" height="800px" style="shape-rendering:geometricPrecision; text-rendering:geometricPrecision; image-rendering:optimizeQuality; fill-rule:evenodd; clip-rule:evenodd" xmlns:xlink="http://www.w3.org/1999/xlink">
<g><path style="opacity:1" fill="#002294" d="M -0.5,-0.5 C 132.833,-0.5 266.167,-0.5 399.5,-0.5C 399.5,101.167 399.5,202.833 399.5,304.5C 392.111,303.314 384.778,302.148 377.5,301C 384.072,324.116 390.572,347.283 397,370.5C 397.667,374.167 397.667,377.833 397,381.5C 396.167,383 395,384.167 393.5,385C 384.833,389 376.167,393 367.5,397C 378.422,405.613 389.088,414.447 399.5,423.5C 399.5,459.833 399.5,496.167 399.5,532.5C 399.5,532.833 399.5,533.167 399.5,533.5C 265.976,621.425 132.976,710.092 0.5,799.5C 0.166667,799.5 -0.166667,799.5 -0.5,799.5C -0.5,532.833 -0.5,266.167 -0.5,-0.5 Z"/></g>
<g><path style="opacity:1" fill="#fffefe" d="M 399.5,-0.5 C 532.833,-0.5 666.167,-0.5 799.5,-0.5C 799.5,88.5 799.5,177.5 799.5,266.5C 782.167,277.833 764.833,289.167 747.5,300.5C 745.978,293.765 744.145,287.099 742,280.5C 741.577,279.044 740.744,278.544 739.5,279C 721.734,299.189 703.734,319.189 685.5,339C 678.105,343.693 673.272,341.859 671,333.5C 677.265,291.67 684.765,250.003 693.5,208.5C 693.167,207.833 692.833,207.167 692.5,206.5C 681.112,212.861 669.446,218.694 657.5,224C 653.705,224.837 650.039,224.504 646.5,223C 631.032,196.569 616.199,169.735 602,142.5C 587.5,169 573,195.5 558.5,222C 554.445,224.34 550.111,225.007 545.5,224C 533.953,218.31 522.453,212.477 511,206.5C 517.252,244.912 524.252,283.245 532,321.5C 532.667,326.5 532.667,331.5 532,336.5C 529.774,340.861 526.274,342.361 521.5,341C 519.5,339.667 517.5,338.333 515.5,337C 498.284,317.406 480.951,297.906 463.5,278.5C 462.914,278.709 462.414,279.043 462,279.5C 459.333,288.833 456.667,298.167 454,307.5C 453.226,309.939 451.726,311.773 449.5,313C 445.5,313.667 441.5,313.667 437.5,313C 424.822,310.119 412.155,307.286 399.5,304.5C 399.5,202.833 399.5,101.167 399.5,-0.5 Z"/></g>
<g><path style="opacity:1" fill="#ed2838" d="M 799.5,-0.5 C 932.833,-0.5 1066.17,-0.5 1199.5,-0.5C 1199.5,266.167 1199.5,532.833 1199.5,799.5C 1066.17,799.5 932.833,799.5 799.5,799.5C 799.5,675.5 799.5,551.5 799.5,427.5C 811.309,417.198 823.309,407.031 835.5,397C 827.46,392.429 819.127,388.429 810.5,385C 809,384.167 807.833,383 807,381.5C 806.333,377.833 806.333,374.167 807,370.5C 813.314,347.233 819.814,324.066 826.5,301C 817.418,301.782 808.418,303.282 799.5,305.5C 799.5,292.5 799.5,279.5 799.5,266.5C 799.5,177.5 799.5,88.5 799.5,-0.5 Z"/></g>
<g><path style="opacity:1" fill="#fe0200" d="M 747.5,300.5 C 748.154,305.66 750.487,309.827 754.5,313C 756.167,313.167 757.833,313.333 759.5,313.5C 772.907,311.148 786.241,308.481 799.5,305.5C 808.418,303.282 817.418,301.782 826.5,301C 819.814,324.066 813.314,347.233 807,370.5C 806.333,374.167 806.333,377.833 807,381.5C 807.833,383 809,384.167 810.5,385C 819.127,388.429 827.46,392.429 835.5,397C 823.309,407.031 811.309,417.198 799.5,427.5C 772.293,448.198 745.793,469.864 720,492.5C 718.566,496.406 718.233,500.406 719,504.5C 722.477,515.096 725.644,525.762 728.5,536.5C 696.84,532.049 665.173,527.549 633.5,523C 626.528,521.835 619.528,521.502 612.5,522C 609.204,524.925 607.537,528.592 607.5,533C 609.111,571.481 610.111,609.981 610.5,648.5C 604.167,648.5 597.833,648.5 591.5,648.5C 592.819,610.487 594.486,572.487 596.5,534.5C 597.461,526.97 594.294,522.304 587,520.5C 551.166,525.548 515.333,530.548 479.5,535.5C 478.167,535.167 476.833,534.833 475.5,534.5C 479.242,522.941 482.576,511.274 485.5,499.5C 484.198,492.191 480.198,486.858 473.5,483.5C 449.148,463.151 424.481,443.151 399.5,423.5C 389.088,414.447 378.422,405.613 367.5,397C 376.167,393 384.833,389 393.5,385C 395,384.167 396.167,383 397,381.5C 397.667,377.833 397.667,374.167 397,370.5C 390.572,347.283 384.072,324.116 377.5,301C 384.778,302.148 392.111,303.314 399.5,304.5C 412.155,307.286 424.822,310.119 437.5,313C 441.5,313.667 445.5,313.667 449.5,313C 451.726,311.773 453.226,309.939 454,307.5C 456.667,298.167 459.333,288.833 462,279.5C 462.414,279.043 462.914,278.709 463.5,278.5C 480.951,297.906 498.284,317.406 515.5,337C 517.5,338.333 519.5,339.667 521.5,341C 526.274,342.361 529.774,340.861 532,336.5C 532.667,331.5 532.667,326.5 532,321.5C 524.252,283.245 517.252,244.912 511,206.5C 522.453,212.477 533.953,218.31 545.5,224C 550.111,225.007 554.445,224.34 558.5,222C 573,195.5 587.5,169 602,142.5C 616.199,169.735 631.032,196.569 646.5,223C 650.039,224.504 653.705,224.837 657.5,224C 669.446,218.694 681.112,212.861 692.5,206.5C 692.833,207.167 693.167,207.833 693.5,208.5C 684.765,250.003 677.265,291.67 671,333.5C 673.272,341.859 678.105,343.693 685.5,339C 703.734,319.189 721.734,299.189 739.5,279C 740.744,278.544 741.577,279.044 742,280.5C 744.145,287.099 745.978,293.765 747.5,300.5 Z"/></g>
<g><path style="opacity:1" fill="#feca02" d="M 799.5,266.5 C 799.5,279.5 799.5,292.5 799.5,305.5C 786.241,308.481 772.907,311.148 759.5,313.5C 757.833,313.333 756.167,313.167 754.5,313C 750.487,309.827 748.154,305.66 747.5,300.5C 764.833,289.167 782.167,277.833 799.5,266.5 Z"/></g>
<g><path style="opacity:1" fill="#fffefd" d="M 399.5,423.5 C 424.481,443.151 449.148,463.151 473.5,483.5C 448.833,499.833 424.167,516.167 399.5,532.5C 399.5,496.167 399.5,459.833 399.5,423.5 Z"/></g>
<g><path style="opacity:1" fill="#feca00" d="M 799.5,427.5 C 799.5,551.5 799.5,675.5 799.5,799.5C 666.167,799.5 532.833,799.5 399.5,799.5C 399.5,710.833 399.5,622.167 399.5,533.5C 399.5,533.167 399.5,532.833 399.5,532.5C 424.167,516.167 448.833,499.833 473.5,483.5C 480.198,486.858 484.198,492.191 485.5,499.5C 482.576,511.274 479.242,522.941 475.5,534.5C 476.833,534.833 478.167,535.167 479.5,535.5C 515.333,530.548 551.166,525.548 587,520.5C 594.294,522.304 597.461,526.97 596.5,534.5C 594.486,572.487 592.819,610.487 591.5,648.5C 597.833,648.5 604.167,648.5 610.5,648.5C 610.111,609.981 609.111,571.481 607.5,533C 607.537,528.592 609.204,524.925 612.5,522C 619.528,521.502 626.528,521.835 633.5,523C 665.173,527.549 696.84,532.049 728.5,536.5C 725.644,525.762 722.477,515.096 719,504.5C 718.233,500.406 718.566,496.406 720,492.5C 745.793,469.864 772.293,448.198 799.5,427.5 Z"/></g>
<g><path style="opacity:1" fill="#000000" d="M 399.5,533.5 C 399.5,622.167 399.5,710.833 399.5,799.5C 266.5,799.5 133.5,799.5 0.5,799.5C 132.976,710.092 265.976,621.425 399.5,533.5 Z"/></g>
</svg>
